# xmcd
#
# Track frame offsets: 
#        150
#        11708
#        24450
#        35755
#        48723
#        62003
#        72213
#        87215
#        100022
#        119732
#        133954
#        147249
#        157846
#        166941
#        179306
#        191613
#        203925
#        219722
#
# Disc length: 3106 seconds
#
# Revision: 0
# Processed by: cddbd v1.5.2PL0 Copyright (c) Steve Scherf et al.
# Submitted via: ExactAudioCopyFreeDBPlugin 1.0
#
DISCID=0a0c2012
DTITLE=Various Artist - Imagine The Blues CD2
DYEAR=2011
DGENRE=Blues
TTITLE0=John Lee Hooker - boogie chillen
TTITLE1=Muddy Waters - she's got it
TTITLE2=B.B. King - mean ole frisco
TTITLE3=Sonny Terry and Brownie McGhee - living with the blues
TTITLE4=Sonny Boy Williamson - wake up baby
TTITLE5=Willie Dixon - good understanding
TTITLE6=Big Bill Broonzy - saturday evening blues
TTITLE7=T-Bone Walker - two bones and a pick
TTITLE8=Big Joe Turner - st.louise blues
TTITLE9=Lowell Fulson - reconsider baby
TTITLE10=Big Bill Broonzy - see see rider
TTITLE11=Jimmy Reed - baby what you want me to do
TTITLE12=eddie "guitar slim" jones - when there's no way out
TTITLE13=Howlin' Wolf - spoonful
TTITLE14=John Lee Hooker - no more doggin'
TTITLE15=Muddy Waters - got my mojo working
TTITLE16=Pee Wee Crayton - mistreated so bad
TTITLE17=Elmore James - dust my broom
EXTD=
EXTT0=
EXTT1=
EXTT2=
EXTT3=
EXTT4=
EXTT5=
EXTT6=
EXTT7=
EXTT8=
EXTT9=
EXTT10=
EXTT11=
EXTT12=
EXTT13=
EXTT14=
EXTT15=
EXTT16=
EXTT17=
PLAYORDER=
